<svg width="200" height="75" viewBox="0 0 200 75" fill="none" xmlns="http://www.w3.org/2000/svg">
<rect width="200" height="75" rx="10" fill="black"/>
<path d="M60.4413 49C59.9279 49 59.4963 48.825 59.1463 48.475C58.8196 48.125 58.6563 47.6933 58.6563 47.18V23.485C58.6563 22.9717 58.8313 22.54 59.1813 22.19C59.5313 21.84 59.9513 21.665 60.4413 21.665C60.9546 21.665 61.3863 21.84 61.7363 22.19C62.0863 22.54 62.2613 22.9717 62.2613 23.485V45.36H74.9312C75.4446 45.36 75.8763 45.535 76.2263 45.885C76.5763 46.235 76.7513 46.6667 76.7513 47.18C76.7513 47.6933 76.5763 48.125 76.2263 48.475C75.8763 48.825 75.4446 49 74.9312 49H60.4413ZM88.7423 49.14C87.039 49.14 85.5106 48.72 84.1573 47.88C82.804 47.0167 81.7306 45.8617 80.9373 44.415C80.1673 42.945 79.7823 41.2883 79.7823 39.445C79.7823 37.6017 80.2023 35.945 81.0423 34.475C81.9056 33.005 83.0606 31.85 84.5073 31.01C85.9773 30.1467 87.6223 29.715 89.4423 29.715C91.2623 29.715 92.8956 30.1467 94.3423 31.01C95.789 31.85 96.9323 33.005 97.7723 34.475C98.6356 35.945 99.0673 37.6017 99.0673 39.445H97.7023C97.7023 41.2883 97.3056 42.945 96.5123 44.415C95.7423 45.8617 94.6806 47.0167 93.3273 47.88C91.974 48.72 90.4456 49.14 88.7423 49.14ZM89.4423 45.99C90.6323 45.99 91.694 45.71 92.6273 45.15C93.5606 44.5667 94.2956 43.785 94.8323 42.805C95.369 41.8017 95.6373 40.6817 95.6373 39.445C95.6373 38.185 95.369 37.065 94.8323 36.085C94.2956 35.0817 93.5606 34.3 92.6273 33.74C91.694 33.1567 90.6323 32.865 89.4423 32.865C88.2756 32.865 87.214 33.1567 86.2573 33.74C85.324 34.3 84.5773 35.0817 84.0173 36.085C83.4806 37.065 83.2123 38.185 83.2123 39.445C83.2123 40.6817 83.4806 41.8017 84.0173 42.805C84.5773 43.785 85.324 44.5667 86.2573 45.15C87.214 45.71 88.2756 45.99 89.4423 45.99ZM97.2823 49.035C96.769 49.035 96.3373 48.8717 95.9873 48.545C95.6606 48.195 95.4973 47.7633 95.4973 47.25V41.895L96.1623 38.185L99.0673 39.445V47.25C99.0673 47.7633 98.8923 48.195 98.5423 48.545C98.2156 48.8717 97.7956 49.035 97.2823 49.035ZM114.005 49.14C112.185 49.14 110.552 48.72 109.105 47.88C107.659 47.0167 106.515 45.85 105.675 44.38C104.835 42.91 104.404 41.2533 104.38 39.41V23.45C104.38 22.9133 104.544 22.4817 104.87 22.155C105.22 21.8283 105.652 21.665 106.165 21.665C106.702 21.665 107.134 21.8283 107.46 22.155C107.787 22.4817 107.95 22.9133 107.95 23.45V32.9C108.767 31.92 109.747 31.15 110.89 30.59C112.057 30.0067 113.329 29.715 114.705 29.715C116.409 29.715 117.937 30.1467 119.29 31.01C120.644 31.85 121.705 33.005 122.475 34.475C123.269 35.9217 123.665 37.5667 123.665 39.41C123.665 41.2533 123.234 42.91 122.37 44.38C121.53 45.85 120.387 47.0167 118.94 47.88C117.494 48.72 115.849 49.14 114.005 49.14ZM114.005 45.99C115.195 45.99 116.257 45.71 117.19 45.15C118.124 44.5667 118.859 43.7733 119.395 42.77C119.955 41.7667 120.235 40.6467 120.235 39.41C120.235 38.15 119.955 37.03 119.395 36.05C118.859 35.07 118.124 34.3 117.19 33.74C116.257 33.1567 115.195 32.865 114.005 32.865C112.839 32.865 111.777 33.1567 110.82 33.74C109.887 34.3 109.152 35.07 108.615 36.05C108.079 37.03 107.81 38.15 107.81 39.41C107.81 40.6467 108.079 41.7667 108.615 42.77C109.152 43.7733 109.887 44.5667 110.82 45.15C111.777 45.71 112.839 45.99 114.005 45.99ZM135.955 49.14C134.322 49.14 132.805 48.895 131.405 48.405C130.028 47.8917 128.955 47.25 128.185 46.48C127.835 46.1067 127.683 45.6867 127.73 45.22C127.8 44.73 128.033 44.3333 128.43 44.03C128.897 43.6567 129.352 43.505 129.795 43.575C130.262 43.6217 130.658 43.82 130.985 44.17C131.382 44.6133 132.012 45.0333 132.875 45.43C133.762 45.8033 134.742 45.99 135.815 45.99C137.168 45.99 138.195 45.7683 138.895 45.325C139.618 44.8817 139.992 44.31 140.015 43.61C140.038 42.91 139.7 42.3033 139 41.79C138.323 41.2767 137.075 40.8567 135.255 40.53C132.898 40.0633 131.183 39.3633 130.11 38.43C129.06 37.4967 128.535 36.3533 128.535 35C128.535 33.81 128.885 32.83 129.585 32.06C130.285 31.2667 131.183 30.6833 132.28 30.31C133.377 29.9133 134.52 29.715 135.71 29.715C137.25 29.715 138.615 29.96 139.805 30.45C140.995 30.94 141.94 31.6167 142.64 32.48C142.967 32.8533 143.118 33.25 143.095 33.67C143.072 34.0667 142.873 34.405 142.5 34.685C142.127 34.9417 141.683 35.0233 141.17 34.93C140.657 34.8367 140.225 34.6267 139.875 34.3C139.292 33.74 138.662 33.355 137.985 33.145C137.308 32.935 136.527 32.83 135.64 32.83C134.613 32.83 133.738 33.005 133.015 33.355C132.315 33.705 131.965 34.2183 131.965 34.895C131.965 35.315 132.07 35.7 132.28 36.05C132.513 36.3767 132.957 36.68 133.61 36.96C134.263 37.2167 135.22 37.4733 136.48 37.73C138.23 38.08 139.607 38.5233 140.61 39.06C141.637 39.5967 142.372 40.2267 142.815 40.95C143.258 41.65 143.48 42.4667 143.48 43.4C143.48 44.4733 143.188 45.4417 142.605 46.305C142.045 47.1683 141.205 47.8567 140.085 48.37C138.988 48.8833 137.612 49.14 135.955 49.14Z" fill="white"/>
</svg>
