<svg width="1055" height="1000" viewBox="0 0 1055 1000" fill="none" xmlns="http://www.w3.org/2000/svg">
<circle cx="5" cy="5" r="5" fill="#D7D7D7"/>
<circle cx="60" cy="5" r="5" fill="#D7D7D7"/>
<circle cx="115" cy="5" r="5" fill="#D7D7D7"/>
<circle cx="170" cy="5" r="5" fill="#D7D7D7"/>
<circle cx="225" cy="5" r="5" fill="#D7D7D7"/>
<circle cx="280" cy="5" r="5" fill="#D7D7D7"/>
<circle cx="335" cy="5" r="5" fill="#D7D7D7"/>
<circle cx="390" cy="5" r="5" fill="#D7D7D7"/>
<circle cx="445" cy="5" r="5" fill="#D7D7D7"/>
<circle cx="500" cy="5" r="5" fill="#D7D7D7"/>
<circle cx="555" cy="5" r="5" fill="#D7D7D7"/>
<circle cx="610" cy="5" r="5" fill="#D7D7D7"/>
<circle cx="665" cy="5" r="5" fill="#D7D7D7"/>
<circle cx="720" cy="5" r="5" fill="#D7D7D7"/>
<circle cx="775" cy="5" r="5" fill="#D7D7D7"/>
<circle cx="830" cy="5" r="5" fill="#D7D7D7"/>
<circle cx="885" cy="5" r="5" fill="#D7D7D7"/>
<circle cx="940" cy="5" r="5" fill="#D7D7D7"/>
<circle cx="995" cy="5" r="5" fill="#D7D7D7"/>
<circle cx="1050" cy="5" r="5" fill="#D7D7D7"/>
<circle cx="5" cy="60" r="5" fill="#D7D7D7"/>
<circle cx="60" cy="60" r="5" fill="#D7D7D7"/>
<circle cx="115" cy="60" r="5" fill="#D7D7D7"/>
<circle cx="170" cy="60" r="5" fill="#D7D7D7"/>
<circle cx="225" cy="60" r="5" fill="#D7D7D7"/>
<circle cx="280" cy="60" r="5" fill="#D7D7D7"/>
<circle cx="335" cy="60" r="5" fill="#D7D7D7"/>
<circle cx="390" cy="60" r="5" fill="#D7D7D7"/>
<circle cx="445" cy="60" r="5" fill="#D7D7D7"/>
<circle cx="500" cy="60" r="5" fill="#D7D7D7"/>
<circle cx="555" cy="60" r="5" fill="#D7D7D7"/>
<circle cx="610" cy="60" r="5" fill="#D7D7D7"/>
<circle cx="665" cy="60" r="5" fill="#D7D7D7"/>
<circle cx="720" cy="60" r="5" fill="#D7D7D7"/>
<circle cx="775" cy="60" r="5" fill="#D7D7D7"/>
<circle cx="830" cy="60" r="5" fill="#D7D7D7"/>
<circle cx="885" cy="60" r="5" fill="#D7D7D7"/>
<circle cx="940" cy="60" r="5" fill="#D7D7D7"/>
<circle cx="995" cy="60" r="5" fill="#D7D7D7"/>
<circle cx="1050" cy="60" r="5" fill="#D7D7D7"/>
<circle cx="5" cy="115" r="5" fill="#D7D7D7"/>
<circle cx="60" cy="115" r="5" fill="#D7D7D7"/>
<circle cx="115" cy="115" r="5" fill="#D7D7D7"/>
<circle cx="170" cy="115" r="5" fill="#D7D7D7"/>
<circle cx="225" cy="115" r="5" fill="#D7D7D7"/>
<circle cx="280" cy="115" r="5" fill="#D7D7D7"/>
<circle cx="335" cy="115" r="5" fill="#D7D7D7"/>
<circle cx="390" cy="115" r="5" fill="#D7D7D7"/>
<circle cx="445" cy="115" r="5" fill="#D7D7D7"/>
<circle cx="500" cy="115" r="5" fill="#D7D7D7"/>
<circle cx="555" cy="115" r="5" fill="#D7D7D7"/>
<circle cx="610" cy="115" r="5" fill="#D7D7D7"/>
<circle cx="665" cy="115" r="5" fill="#D7D7D7"/>
<circle cx="720" cy="115" r="5" fill="#D7D7D7"/>
<circle cx="775" cy="115" r="5" fill="#D7D7D7"/>
<circle cx="830" cy="115" r="5" fill="#D7D7D7"/>
<circle cx="885" cy="115" r="5" fill="#D7D7D7"/>
<circle cx="940" cy="115" r="5" fill="#D7D7D7"/>
<circle cx="995" cy="115" r="5" fill="#D7D7D7"/>
<circle cx="1050" cy="115" r="5" fill="#D7D7D7"/>
<circle cx="5" cy="170" r="5" fill="#D7D7D7"/>
<circle cx="60" cy="170" r="5" fill="#D7D7D7"/>
<circle cx="115" cy="170" r="5" fill="#D7D7D7"/>
<circle cx="170" cy="170" r="5" fill="#D7D7D7"/>
<circle cx="225" cy="170" r="5" fill="#D7D7D7"/>
<circle cx="280" cy="170" r="5" fill="#D7D7D7"/>
<circle cx="335" cy="170" r="5" fill="#D7D7D7"/>
<circle cx="390" cy="170" r="5" fill="#D7D7D7"/>
<circle cx="445" cy="170" r="5" fill="#D7D7D7"/>
<circle cx="500" cy="170" r="5" fill="#D7D7D7"/>
<circle cx="555" cy="170" r="5" fill="#D7D7D7"/>
<circle cx="610" cy="170" r="5" fill="#D7D7D7"/>
<circle cx="665" cy="170" r="5" fill="#D7D7D7"/>
<circle cx="720" cy="170" r="5" fill="#D7D7D7"/>
<circle cx="775" cy="170" r="5" fill="#D7D7D7"/>
<circle cx="830" cy="170" r="5" fill="#D7D7D7"/>
<circle cx="885" cy="170" r="5" fill="#D7D7D7"/>
<circle cx="940" cy="170" r="5" fill="#D7D7D7"/>
<circle cx="995" cy="170" r="5" fill="#D7D7D7"/>
<circle cx="1050" cy="170" r="5" fill="#D7D7D7"/>
<circle cx="5" cy="225" r="5" fill="#D7D7D7"/>
<circle cx="60" cy="225" r="5" fill="#D7D7D7"/>
<circle cx="115" cy="225" r="5" fill="#D7D7D7"/>
<circle cx="170" cy="225" r="5" fill="#D7D7D7"/>
<circle cx="225" cy="225" r="5" fill="#D7D7D7"/>
<circle cx="280" cy="225" r="5" fill="#D7D7D7"/>
<circle cx="335" cy="225" r="5" fill="#D7D7D7"/>
<circle cx="390" cy="225" r="5" fill="#D7D7D7"/>
<circle cx="445" cy="225" r="5" fill="#D7D7D7"/>
<circle cx="500" cy="225" r="5" fill="#D7D7D7"/>
<circle cx="555" cy="225" r="5" fill="#D7D7D7"/>
<circle cx="610" cy="225" r="5" fill="#D7D7D7"/>
<circle cx="665" cy="225" r="5" fill="#D7D7D7"/>
<circle cx="720" cy="225" r="5" fill="#D7D7D7"/>
<circle cx="775" cy="225" r="5" fill="#D7D7D7"/>
<circle cx="830" cy="225" r="5" fill="#D7D7D7"/>
<circle cx="885" cy="225" r="5" fill="#D7D7D7"/>
<circle cx="940" cy="225" r="5" fill="#D7D7D7"/>
<circle cx="995" cy="225" r="5" fill="#D7D7D7"/>
<circle cx="1050" cy="225" r="5" fill="#D7D7D7"/>
<circle cx="5" cy="280" r="5" fill="#D7D7D7"/>
<circle cx="60" cy="280" r="5" fill="#D7D7D7"/>
<circle cx="115" cy="280" r="5" fill="#D7D7D7"/>
<circle cx="170" cy="280" r="5" fill="#D7D7D7"/>
<circle cx="225" cy="280" r="5" fill="#D7D7D7"/>
<circle cx="280" cy="280" r="5" fill="#D7D7D7"/>
<circle cx="335" cy="280" r="5" fill="#D7D7D7"/>
<circle cx="390" cy="280" r="5" fill="#D7D7D7"/>
<circle cx="445" cy="280" r="5" fill="#D7D7D7"/>
<circle cx="500" cy="280" r="5" fill="#D7D7D7"/>
<circle cx="555" cy="280" r="5" fill="#D7D7D7"/>
<circle cx="610" cy="280" r="5" fill="#D7D7D7"/>
<circle cx="665" cy="280" r="5" fill="#D7D7D7"/>
<circle cx="720" cy="280" r="5" fill="#D7D7D7"/>
<circle cx="775" cy="280" r="5" fill="#D7D7D7"/>
<circle cx="830" cy="280" r="5" fill="#D7D7D7"/>
<circle cx="885" cy="280" r="5" fill="#D7D7D7"/>
<circle cx="940" cy="280" r="5" fill="#D7D7D7"/>
<circle cx="995" cy="280" r="5" fill="#D7D7D7"/>
<circle cx="1050" cy="280" r="5" fill="#D7D7D7"/>
<circle cx="5" cy="335" r="5" fill="#D7D7D7"/>
<circle cx="60" cy="335" r="5" fill="#D7D7D7"/>
<circle cx="115" cy="335" r="5" fill="#D7D7D7"/>
<circle cx="170" cy="335" r="5" fill="#D7D7D7"/>
<circle cx="225" cy="335" r="5" fill="#D7D7D7"/>
<circle cx="280" cy="335" r="5" fill="#D7D7D7"/>
<circle cx="335" cy="335" r="5" fill="#D7D7D7"/>
<circle cx="390" cy="335" r="5" fill="#D7D7D7"/>
<circle cx="445" cy="335" r="5" fill="#D7D7D7"/>
<circle cx="500" cy="335" r="5" fill="#D7D7D7"/>
<circle cx="555" cy="335" r="5" fill="#D7D7D7"/>
<circle cx="610" cy="335" r="5" fill="#D7D7D7"/>
<circle cx="665" cy="335" r="5" fill="#D7D7D7"/>
<circle cx="720" cy="335" r="5" fill="#D7D7D7"/>
<circle cx="775" cy="335" r="5" fill="#D7D7D7"/>
<circle cx="830" cy="335" r="5" fill="#D7D7D7"/>
<circle cx="885" cy="335" r="5" fill="#D7D7D7"/>
<circle cx="940" cy="335" r="5" fill="#D7D7D7"/>
<circle cx="995" cy="335" r="5" fill="#D7D7D7"/>
<circle cx="1050" cy="335" r="5" fill="#D7D7D7"/>
<circle cx="5" cy="390" r="5" fill="#D7D7D7"/>
<circle cx="60" cy="390" r="5" fill="#D7D7D7"/>
<circle cx="115" cy="390" r="5" fill="#D7D7D7"/>
<circle cx="170" cy="390" r="5" fill="#D7D7D7"/>
<circle cx="225" cy="390" r="5" fill="#D7D7D7"/>
<circle cx="280" cy="390" r="5" fill="#D7D7D7"/>
<circle cx="335" cy="390" r="5" fill="#D7D7D7"/>
<circle cx="390" cy="390" r="5" fill="#D7D7D7"/>
<circle cx="445" cy="390" r="5" fill="#D7D7D7"/>
<circle cx="500" cy="390" r="5" fill="#D7D7D7"/>
<circle cx="555" cy="390" r="5" fill="#D7D7D7"/>
<circle cx="610" cy="390" r="5" fill="#D7D7D7"/>
<circle cx="665" cy="390" r="5" fill="#D7D7D7"/>
<circle cx="720" cy="390" r="5" fill="#D7D7D7"/>
<circle cx="775" cy="390" r="5" fill="#D7D7D7"/>
<circle cx="830" cy="390" r="5" fill="#D7D7D7"/>
<circle cx="885" cy="390" r="5" fill="#D7D7D7"/>
<circle cx="940" cy="390" r="5" fill="#D7D7D7"/>
<circle cx="995" cy="390" r="5" fill="#D7D7D7"/>
<circle cx="1050" cy="390" r="5" fill="#D7D7D7"/>
<circle cx="5" cy="445" r="5" fill="#D7D7D7"/>
<circle cx="60" cy="445" r="5" fill="#D7D7D7"/>
<circle cx="115" cy="445" r="5" fill="#D7D7D7"/>
<circle cx="170" cy="445" r="5" fill="#D7D7D7"/>
<circle cx="225" cy="445" r="5" fill="#D7D7D7"/>
<circle cx="280" cy="445" r="5" fill="#D7D7D7"/>
<circle cx="335" cy="445" r="5" fill="#D7D7D7"/>
<circle cx="390" cy="445" r="5" fill="#D7D7D7"/>
<circle cx="445" cy="445" r="5" fill="#D7D7D7"/>
<circle cx="500" cy="445" r="5" fill="#D7D7D7"/>
<circle cx="555" cy="445" r="5" fill="#D7D7D7"/>
<circle cx="610" cy="445" r="5" fill="#D7D7D7"/>
<circle cx="665" cy="445" r="5" fill="#D7D7D7"/>
<circle cx="720" cy="445" r="5" fill="#D7D7D7"/>
<circle cx="775" cy="445" r="5" fill="#D7D7D7"/>
<circle cx="830" cy="445" r="5" fill="#D7D7D7"/>
<circle cx="885" cy="445" r="5" fill="#D7D7D7"/>
<circle cx="940" cy="445" r="5" fill="#D7D7D7"/>
<circle cx="995" cy="445" r="5" fill="#D7D7D7"/>
<circle cx="1050" cy="445" r="5" fill="#D7D7D7"/>
<circle cx="5" cy="500" r="5" fill="#D7D7D7"/>
<circle cx="60" cy="500" r="5" fill="#D7D7D7"/>
<circle cx="115" cy="500" r="5" fill="#D7D7D7"/>
<circle cx="170" cy="500" r="5" fill="#D7D7D7"/>
<circle cx="225" cy="500" r="5" fill="#D7D7D7"/>
<circle cx="280" cy="500" r="5" fill="#D7D7D7"/>
<circle cx="335" cy="500" r="5" fill="#D7D7D7"/>
<circle cx="390" cy="500" r="5" fill="#D7D7D7"/>
<circle cx="445" cy="500" r="5" fill="#D7D7D7"/>
<circle cx="500" cy="500" r="5" fill="#D7D7D7"/>
<circle cx="555" cy="500" r="5" fill="#D7D7D7"/>
<circle cx="610" cy="500" r="5" fill="#D7D7D7"/>
<circle cx="665" cy="500" r="5" fill="#D7D7D7"/>
<circle cx="720" cy="500" r="5" fill="#D7D7D7"/>
<circle cx="775" cy="500" r="5" fill="#D7D7D7"/>
<circle cx="830" cy="500" r="5" fill="#D7D7D7"/>
<circle cx="885" cy="500" r="5" fill="#D7D7D7"/>
<circle cx="940" cy="500" r="5" fill="#D7D7D7"/>
<circle cx="995" cy="500" r="5" fill="#D7D7D7"/>
<circle cx="1050" cy="500" r="5" fill="#D7D7D7"/>
<circle cx="5" cy="555" r="5" fill="#D7D7D7"/>
<circle cx="60" cy="555" r="5" fill="#D7D7D7"/>
<circle cx="115" cy="555" r="5" fill="#D7D7D7"/>
<circle cx="170" cy="555" r="5" fill="#D7D7D7"/>
<circle cx="225" cy="555" r="5" fill="#D7D7D7"/>
<circle cx="280" cy="555" r="5" fill="#D7D7D7"/>
<circle cx="335" cy="555" r="5" fill="#D7D7D7"/>
<circle cx="390" cy="555" r="5" fill="#D7D7D7"/>
<circle cx="445" cy="555" r="5" fill="#D7D7D7"/>
<circle cx="500" cy="555" r="5" fill="#D7D7D7"/>
<circle cx="555" cy="555" r="5" fill="#D7D7D7"/>
<circle cx="610" cy="555" r="5" fill="#D7D7D7"/>
<circle cx="665" cy="555" r="5" fill="#D7D7D7"/>
<circle cx="720" cy="555" r="5" fill="#D7D7D7"/>
<circle cx="775" cy="555" r="5" fill="#D7D7D7"/>
<circle cx="830" cy="555" r="5" fill="#D7D7D7"/>
<circle cx="885" cy="555" r="5" fill="#D7D7D7"/>
<circle cx="940" cy="555" r="5" fill="#D7D7D7"/>
<circle cx="995" cy="555" r="5" fill="#D7D7D7"/>
<circle cx="1050" cy="555" r="5" fill="#D7D7D7"/>
<circle cx="5" cy="610" r="5" fill="#D7D7D7"/>
<circle cx="60" cy="610" r="5" fill="#D7D7D7"/>
<circle cx="115" cy="610" r="5" fill="#D7D7D7"/>
<circle cx="170" cy="610" r="5" fill="#D7D7D7"/>
<circle cx="225" cy="610" r="5" fill="#D7D7D7"/>
<circle cx="280" cy="610" r="5" fill="#D7D7D7"/>
<circle cx="335" cy="610" r="5" fill="#D7D7D7"/>
<circle cx="390" cy="610" r="5" fill="#D7D7D7"/>
<circle cx="445" cy="610" r="5" fill="#D7D7D7"/>
<circle cx="500" cy="610" r="5" fill="#D7D7D7"/>
<circle cx="555" cy="610" r="5" fill="#D7D7D7"/>
<circle cx="610" cy="610" r="5" fill="#D7D7D7"/>
<circle cx="665" cy="610" r="5" fill="#D7D7D7"/>
<circle cx="720" cy="610" r="5" fill="#D7D7D7"/>
<circle cx="775" cy="610" r="5" fill="#D7D7D7"/>
<circle cx="830" cy="610" r="5" fill="#D7D7D7"/>
<circle cx="885" cy="610" r="5" fill="#D7D7D7"/>
<circle cx="940" cy="610" r="5" fill="#D7D7D7"/>
<circle cx="995" cy="610" r="5" fill="#D7D7D7"/>
<circle cx="1050" cy="610" r="5" fill="#D7D7D7"/>
<circle cx="5" cy="665" r="5" fill="#D7D7D7"/>
<circle cx="60" cy="665" r="5" fill="#D7D7D7"/>
<circle cx="115" cy="665" r="5" fill="#D7D7D7"/>
<circle cx="170" cy="665" r="5" fill="#D7D7D7"/>
<circle cx="225" cy="665" r="5" fill="#D7D7D7"/>
<circle cx="280" cy="665" r="5" fill="#D7D7D7"/>
<circle cx="335" cy="665" r="5" fill="#D7D7D7"/>
<circle cx="390" cy="665" r="5" fill="#D7D7D7"/>
<circle cx="445" cy="665" r="5" fill="#D7D7D7"/>
<circle cx="500" cy="665" r="5" fill="#D7D7D7"/>
<circle cx="555" cy="665" r="5" fill="#D7D7D7"/>
<circle cx="610" cy="665" r="5" fill="#D7D7D7"/>
<circle cx="665" cy="665" r="5" fill="#D7D7D7"/>
<circle cx="720" cy="665" r="5" fill="#D7D7D7"/>
<circle cx="775" cy="665" r="5" fill="#D7D7D7"/>
<circle cx="830" cy="665" r="5" fill="#D7D7D7"/>
<circle cx="885" cy="665" r="5" fill="#D7D7D7"/>
<circle cx="940" cy="665" r="5" fill="#D7D7D7"/>
<circle cx="995" cy="665" r="5" fill="#D7D7D7"/>
<circle cx="1050" cy="665" r="5" fill="#D7D7D7"/>
<circle cx="5" cy="720" r="5" fill="#D7D7D7"/>
<circle cx="60" cy="720" r="5" fill="#D7D7D7"/>
<circle cx="115" cy="720" r="5" fill="#D7D7D7"/>
<circle cx="170" cy="720" r="5" fill="#D7D7D7"/>
<circle cx="225" cy="720" r="5" fill="#D7D7D7"/>
<circle cx="280" cy="720" r="5" fill="#D7D7D7"/>
<circle cx="335" cy="720" r="5" fill="#D7D7D7"/>
<circle cx="390" cy="720" r="5" fill="#D7D7D7"/>
<circle cx="445" cy="720" r="5" fill="#D7D7D7"/>
<circle cx="500" cy="720" r="5" fill="#D7D7D7"/>
<circle cx="555" cy="720" r="5" fill="#D7D7D7"/>
<circle cx="610" cy="720" r="5" fill="#D7D7D7"/>
<circle cx="665" cy="720" r="5" fill="#D7D7D7"/>
<circle cx="720" cy="720" r="5" fill="#D7D7D7"/>
<circle cx="775" cy="720" r="5" fill="#D7D7D7"/>
<circle cx="830" cy="720" r="5" fill="#D7D7D7"/>
<circle cx="885" cy="720" r="5" fill="#D7D7D7"/>
<circle cx="940" cy="720" r="5" fill="#D7D7D7"/>
<circle cx="995" cy="720" r="5" fill="#D7D7D7"/>
<circle cx="1050" cy="720" r="5" fill="#D7D7D7"/>
<circle cx="5" cy="775" r="5" fill="#D7D7D7"/>
<circle cx="60" cy="775" r="5" fill="#D7D7D7"/>
<circle cx="115" cy="775" r="5" fill="#D7D7D7"/>
<circle cx="170" cy="775" r="5" fill="#D7D7D7"/>
<circle cx="225" cy="775" r="5" fill="#D7D7D7"/>
<circle cx="280" cy="775" r="5" fill="#D7D7D7"/>
<circle cx="335" cy="775" r="5" fill="#D7D7D7"/>
<circle cx="390" cy="775" r="5" fill="#D7D7D7"/>
<circle cx="445" cy="775" r="5" fill="#D7D7D7"/>
<circle cx="500" cy="775" r="5" fill="#D7D7D7"/>
<circle cx="555" cy="775" r="5" fill="#D7D7D7"/>
<circle cx="610" cy="775" r="5" fill="#D7D7D7"/>
<circle cx="665" cy="775" r="5" fill="#D7D7D7"/>
<circle cx="720" cy="775" r="5" fill="#D7D7D7"/>
<circle cx="775" cy="775" r="5" fill="#D7D7D7"/>
<circle cx="830" cy="775" r="5" fill="#D7D7D7"/>
<circle cx="885" cy="775" r="5" fill="#D7D7D7"/>
<circle cx="940" cy="775" r="5" fill="#D7D7D7"/>
<circle cx="995" cy="775" r="5" fill="#D7D7D7"/>
<circle cx="1050" cy="775" r="5" fill="#D7D7D7"/>
<circle cx="5" cy="830" r="5" fill="#D7D7D7"/>
<circle cx="60" cy="830" r="5" fill="#D7D7D7"/>
<circle cx="115" cy="830" r="5" fill="#D7D7D7"/>
<circle cx="170" cy="830" r="5" fill="#D7D7D7"/>
<circle cx="225" cy="830" r="5" fill="#D7D7D7"/>
<circle cx="280" cy="830" r="5" fill="#D7D7D7"/>
<circle cx="335" cy="830" r="5" fill="#D7D7D7"/>
<circle cx="390" cy="830" r="5" fill="#D7D7D7"/>
<circle cx="445" cy="830" r="5" fill="#D7D7D7"/>
<circle cx="500" cy="830" r="5" fill="#D7D7D7"/>
<circle cx="555" cy="830" r="5" fill="#D7D7D7"/>
<circle cx="610" cy="830" r="5" fill="#D7D7D7"/>
<circle cx="665" cy="830" r="5" fill="#D7D7D7"/>
<circle cx="720" cy="830" r="5" fill="#D7D7D7"/>
<circle cx="775" cy="830" r="5" fill="#D7D7D7"/>
<circle cx="830" cy="830" r="5" fill="#D7D7D7"/>
<circle cx="885" cy="830" r="5" fill="#D7D7D7"/>
<circle cx="940" cy="830" r="5" fill="#D7D7D7"/>
<circle cx="995" cy="830" r="5" fill="#D7D7D7"/>
<circle cx="1050" cy="830" r="5" fill="#D7D7D7"/>
<circle cx="5" cy="885" r="5" fill="#D7D7D7"/>
<circle cx="60" cy="885" r="5" fill="#D7D7D7"/>
<circle cx="115" cy="885" r="5" fill="#D7D7D7"/>
<circle cx="170" cy="885" r="5" fill="#D7D7D7"/>
<circle cx="225" cy="885" r="5" fill="#D7D7D7"/>
<circle cx="280" cy="885" r="5" fill="#D7D7D7"/>
<circle cx="335" cy="885" r="5" fill="#D7D7D7"/>
<circle cx="390" cy="885" r="5" fill="#D7D7D7"/>
<circle cx="445" cy="885" r="5" fill="#D7D7D7"/>
<circle cx="500" cy="885" r="5" fill="#D7D7D7"/>
<circle cx="555" cy="885" r="5" fill="#D7D7D7"/>
<circle cx="610" cy="885" r="5" fill="#D7D7D7"/>
<circle cx="665" cy="885" r="5" fill="#D7D7D7"/>
<circle cx="720" cy="885" r="5" fill="#D7D7D7"/>
<circle cx="775" cy="885" r="5" fill="#D7D7D7"/>
<circle cx="830" cy="885" r="5" fill="#D7D7D7"/>
<circle cx="885" cy="885" r="5" fill="#D7D7D7"/>
<circle cx="940" cy="885" r="5" fill="#D7D7D7"/>
<circle cx="995" cy="885" r="5" fill="#D7D7D7"/>
<circle cx="1050" cy="885" r="5" fill="#D7D7D7"/>
<circle cx="5" cy="940" r="5" fill="#D7D7D7"/>
<circle cx="60" cy="940" r="5" fill="#D7D7D7"/>
<circle cx="115" cy="940" r="5" fill="#D7D7D7"/>
<circle cx="170" cy="940" r="5" fill="#D7D7D7"/>
<circle cx="225" cy="940" r="5" fill="#D7D7D7"/>
<circle cx="280" cy="940" r="5" fill="#D7D7D7"/>
<circle cx="335" cy="940" r="5" fill="#D7D7D7"/>
<circle cx="390" cy="940" r="5" fill="#D7D7D7"/>
<circle cx="445" cy="940" r="5" fill="#D7D7D7"/>
<circle cx="500" cy="940" r="5" fill="#D7D7D7"/>
<circle cx="555" cy="940" r="5" fill="#D7D7D7"/>
<circle cx="610" cy="940" r="5" fill="#D7D7D7"/>
<circle cx="665" cy="940" r="5" fill="#D7D7D7"/>
<circle cx="720" cy="940" r="5" fill="#D7D7D7"/>
<circle cx="775" cy="940" r="5" fill="#D7D7D7"/>
<circle cx="830" cy="940" r="5" fill="#D7D7D7"/>
<circle cx="885" cy="940" r="5" fill="#D7D7D7"/>
<circle cx="940" cy="940" r="5" fill="#D7D7D7"/>
<circle cx="995" cy="940" r="5" fill="#D7D7D7"/>
<circle cx="1050" cy="940" r="5" fill="#D7D7D7"/>
<circle cx="5" cy="995" r="5" fill="#D7D7D7"/>
<circle cx="60" cy="995" r="5" fill="#D7D7D7"/>
<circle cx="115" cy="995" r="5" fill="#D7D7D7"/>
<circle cx="170" cy="995" r="5" fill="#D7D7D7"/>
<circle cx="225" cy="995" r="5" fill="#D7D7D7"/>
<circle cx="280" cy="995" r="5" fill="#D7D7D7"/>
<circle cx="335" cy="995" r="5" fill="#D7D7D7"/>
<circle cx="390" cy="995" r="5" fill="#D7D7D7"/>
<circle cx="445" cy="995" r="5" fill="#D7D7D7"/>
<circle cx="500" cy="995" r="5" fill="#D7D7D7"/>
<circle cx="555" cy="995" r="5" fill="#D7D7D7"/>
<circle cx="610" cy="995" r="5" fill="#D7D7D7"/>
<circle cx="665" cy="995" r="5" fill="#D7D7D7"/>
<circle cx="720" cy="995" r="5" fill="#D7D7D7"/>
<circle cx="775" cy="995" r="5" fill="#D7D7D7"/>
<circle cx="830" cy="995" r="5" fill="#D7D7D7"/>
<circle cx="885" cy="995" r="5" fill="#D7D7D7"/>
<circle cx="940" cy="995" r="5" fill="#D7D7D7"/>
<circle cx="995" cy="995" r="5" fill="#D7D7D7"/>
<circle cx="1050" cy="995" r="5" fill="#D7D7D7"/>
</svg>
